<svg xmlns="http://www.w3.org/2000/svg" xmlns:xlink="http://www.w3.org/1999/xlink" width="64" zoomAndPan="magnify" viewBox="0 0 48 48" height="64" preserveAspectRatio="xMidYMid meet" version="1.0"><defs><g/><clipPath id="c981756351"><path d="M 0.488281 0 L 47.507812 0 L 47.507812 47.019531 L 0.488281 47.019531 Z M 0.488281 0 " clip-rule="nonzero"/></clipPath></defs><g clip-path="url(#c981756351)"><path fill="#000000" d="M 47.511719 23.511719 C 47.511719 24.28125 47.472656 25.046875 47.398438 25.816406 C 47.320312 26.582031 47.207031 27.339844 47.058594 28.097656 C 46.910156 28.851562 46.722656 29.597656 46.496094 30.335938 C 46.273438 31.070312 46.015625 31.796875 45.71875 32.507812 C 45.425781 33.21875 45.097656 33.914062 44.734375 34.59375 C 44.371094 35.273438 43.976562 35.929688 43.546875 36.570312 C 43.121094 37.210938 42.660156 37.828125 42.171875 38.425781 C 41.683594 39.019531 41.167969 39.589844 40.625 40.132812 C 40.078125 40.679688 39.511719 41.195312 38.914062 41.683594 C 38.320312 42.171875 37.703125 42.628906 37.0625 43.058594 C 36.421875 43.484375 35.761719 43.882812 35.082031 44.246094 C 34.402344 44.605469 33.707031 44.9375 32.996094 45.230469 C 32.285156 45.527344 31.5625 45.785156 30.824219 46.007812 C 30.085938 46.230469 29.34375 46.417969 28.585938 46.570312 C 27.832031 46.71875 27.070312 46.832031 26.304688 46.90625 C 25.539062 46.984375 24.769531 47.019531 24 47.019531 C 23.230469 47.019531 22.460938 46.984375 21.695312 46.90625 C 20.929688 46.832031 20.167969 46.71875 19.414062 46.570312 C 18.65625 46.417969 17.914062 46.230469 17.175781 46.007812 C 16.4375 45.785156 15.714844 45.527344 15.003906 45.230469 C 14.292969 44.9375 13.597656 44.605469 12.917969 44.246094 C 12.238281 43.882812 11.578125 43.484375 10.9375 43.058594 C 10.296875 42.628906 9.679688 42.171875 9.085938 41.683594 C 8.488281 41.195312 7.921875 40.679688 7.375 40.132812 C 6.832031 39.589844 6.316406 39.019531 5.828125 38.425781 C 5.335938 37.828125 4.878906 37.210938 4.453125 36.570312 C 4.023438 35.929688 3.628906 35.273438 3.265625 34.59375 C 2.902344 33.914062 2.574219 33.21875 2.28125 32.507812 C 1.984375 31.796875 1.726562 31.070312 1.503906 30.335938 C 1.277344 29.597656 1.089844 28.851562 0.941406 28.097656 C 0.792969 27.339844 0.679688 26.582031 0.601562 25.816406 C 0.527344 25.046875 0.488281 24.28125 0.488281 23.511719 C 0.488281 22.738281 0.527344 21.972656 0.601562 21.207031 C 0.679688 20.441406 0.792969 19.679688 0.941406 18.921875 C 1.089844 18.167969 1.277344 17.421875 1.503906 16.6875 C 1.726562 15.949219 1.984375 15.226562 2.28125 14.511719 C 2.574219 13.800781 2.902344 13.105469 3.265625 12.425781 C 3.628906 11.75 4.023438 11.089844 4.453125 10.449219 C 4.878906 9.808594 5.335938 9.191406 5.828125 8.59375 C 6.316406 8 6.832031 7.429688 7.375 6.886719 C 7.921875 6.339844 8.488281 5.824219 9.085938 5.335938 C 9.679688 4.847656 10.296875 4.390625 10.9375 3.960938 C 11.578125 3.535156 12.238281 3.140625 12.917969 2.777344 C 13.597656 2.414062 14.292969 2.085938 15.003906 1.789062 C 15.714844 1.496094 16.4375 1.234375 17.175781 1.011719 C 17.914062 0.789062 18.65625 0.601562 19.414062 0.453125 C 20.167969 0.300781 20.929688 0.1875 21.695312 0.113281 C 22.460938 0.0390625 23.230469 0 24 0 C 24.769531 0 25.539062 0.0390625 26.304688 0.113281 C 27.070312 0.1875 27.832031 0.300781 28.585938 0.453125 C 29.34375 0.601562 30.085938 0.789062 30.824219 1.011719 C 31.5625 1.234375 32.285156 1.496094 32.996094 1.789062 C 33.707031 2.085938 34.402344 2.414062 35.082031 2.777344 C 35.761719 3.140625 36.421875 3.535156 37.0625 3.960938 C 37.703125 4.390625 38.320312 4.847656 38.914062 5.335938 C 39.511719 5.824219 40.078125 6.339844 40.625 6.886719 C 41.167969 7.429688 41.683594 8 42.171875 8.59375 C 42.660156 9.191406 43.121094 9.808594 43.546875 10.449219 C 43.976562 11.089844 44.371094 11.75 44.734375 12.425781 C 45.097656 13.105469 45.425781 13.800781 45.71875 14.511719 C 46.015625 15.226562 46.273438 15.949219 46.496094 16.6875 C 46.722656 17.421875 46.910156 18.167969 47.058594 18.921875 C 47.207031 19.679688 47.320312 20.441406 47.398438 21.207031 C 47.472656 21.972656 47.511719 22.738281 47.511719 23.511719 Z M 47.511719 23.511719 " fill-opacity="1" fill-rule="nonzero"/></g><g fill="#ffffff" fill-opacity="1"><g transform="translate(7.864284, 29.790946)"><g><path d="M 8.9375 -18.359375 C 9.570312 -19.359375 10.453125 -20.164062 11.578125 -20.78125 C 12.703125 -21.394531 14.019531 -21.703125 15.53125 -21.703125 C 17.289062 -21.703125 18.882812 -21.253906 20.3125 -20.359375 C 21.75 -19.460938 22.882812 -18.179688 23.71875 -16.515625 C 24.550781 -14.859375 24.96875 -12.929688 24.96875 -10.734375 C 24.96875 -8.535156 24.550781 -6.597656 23.71875 -4.921875 C 22.882812 -3.253906 21.75 -1.960938 20.3125 -1.046875 C 18.882812 -0.140625 17.289062 0.3125 15.53125 0.3125 C 14.050781 0.3125 12.738281 0.00390625 11.59375 -0.609375 C 10.457031 -1.222656 9.570312 -2.015625 8.9375 -2.984375 L 8.9375 10.203125 L 2.375 10.203125 L 2.375 -21.390625 L 8.9375 -21.390625 Z M 18.296875 -10.734375 C 18.296875 -12.367188 17.835938 -13.648438 16.921875 -14.578125 C 16.015625 -15.515625 14.898438 -15.984375 13.578125 -15.984375 C 12.273438 -15.984375 11.164062 -15.507812 10.25 -14.5625 C 9.34375 -13.625 8.890625 -12.335938 8.890625 -10.703125 C 8.890625 -9.066406 9.34375 -7.773438 10.25 -6.828125 C 11.164062 -5.878906 12.273438 -5.40625 13.578125 -5.40625 C 14.878906 -5.40625 15.988281 -5.882812 16.90625 -6.84375 C 17.832031 -7.800781 18.296875 -9.097656 18.296875 -10.734375 Z M 18.296875 -10.734375 "/></g></g></g><g fill="#d9d9d9" fill-opacity="1"><g transform="translate(33.899997, 29.790946)"><g><path d="M 5.4375 0.3125 C 4.289062 0.3125 3.351562 -0.0234375 2.625 -0.703125 C 1.894531 -1.378906 1.53125 -2.21875 1.53125 -3.21875 C 1.53125 -4.238281 1.894531 -5.09375 2.625 -5.78125 C 3.351562 -6.476562 4.289062 -6.828125 5.4375 -6.828125 C 6.5625 -6.828125 7.488281 -6.476562 8.21875 -5.78125 C 8.945312 -5.09375 9.3125 -4.238281 9.3125 -3.21875 C 9.3125 -2.21875 8.945312 -1.378906 8.21875 -0.703125 C 7.488281 -0.0234375 6.5625 0.3125 5.4375 0.3125 Z M 5.4375 0.3125 "/></g></g></g></svg>