<svg xmlns="http://www.w3.org/2000/svg" xmlns:xlink="http://www.w3.org/1999/xlink" width="64" zoomAndPan="magnify" viewBox="0 0 48 48" height="64" preserveAspectRatio="xMidYMid meet" version="1.0"><defs><g/><clipPath id="f6e125005a"><path d="M 0.488281 0 L 47.507812 0 L 47.507812 47.019531 L 0.488281 47.019531 Z M 0.488281 0 " clip-rule="nonzero"/></clipPath></defs><g clip-path="url(#f6e125005a)"><path fill="#000000" d="M 47.511719 23.511719 C 47.511719 24.28125 47.472656 25.046875 47.398438 25.816406 C 47.320312 26.582031 47.207031 27.339844 47.058594 28.097656 C 46.910156 28.851562 46.722656 29.597656 46.496094 30.335938 C 46.273438 31.070312 46.015625 31.796875 45.71875 32.507812 C 45.425781 33.21875 45.097656 33.914062 44.734375 34.59375 C 44.371094 35.273438 43.976562 35.929688 43.546875 36.570312 C 43.121094 37.210938 42.660156 37.828125 42.171875 38.425781 C 41.683594 39.019531 41.167969 39.589844 40.625 40.132812 C 40.078125 40.679688 39.511719 41.195312 38.914062 41.683594 C 38.320312 42.171875 37.703125 42.628906 37.0625 43.058594 C 36.421875 43.484375 35.761719 43.882812 35.082031 44.246094 C 34.402344 44.605469 33.707031 44.9375 32.996094 45.230469 C 32.285156 45.527344 31.5625 45.785156 30.824219 46.007812 C 30.085938 46.230469 29.34375 46.417969 28.585938 46.570312 C 27.832031 46.71875 27.070312 46.832031 26.304688 46.90625 C 25.539062 46.984375 24.769531 47.019531 24 47.019531 C 23.230469 47.019531 22.460938 46.984375 21.695312 46.90625 C 20.929688 46.832031 20.167969 46.71875 19.414062 46.570312 C 18.65625 46.417969 17.914062 46.230469 17.175781 46.007812 C 16.4375 45.785156 15.714844 45.527344 15.003906 45.230469 C 14.292969 44.9375 13.597656 44.605469 12.917969 44.246094 C 12.238281 43.882812 11.578125 43.484375 10.9375 43.058594 C 10.296875 42.628906 9.679688 42.171875 9.085938 41.683594 C 8.488281 41.195312 7.921875 40.679688 7.375 40.132812 C 6.832031 39.589844 6.316406 39.019531 5.828125 38.425781 C 5.335938 37.828125 4.878906 37.210938 4.453125 36.570312 C 4.023438 35.929688 3.628906 35.273438 3.265625 34.59375 C 2.902344 33.914062 2.574219 33.21875 2.28125 32.507812 C 1.984375 31.796875 1.726562 31.070312 1.503906 30.335938 C 1.277344 29.597656 1.089844 28.851562 0.941406 28.097656 C 0.792969 27.339844 0.679688 26.582031 0.601562 25.816406 C 0.527344 25.046875 0.488281 24.28125 0.488281 23.511719 C 0.488281 22.738281 0.527344 21.972656 0.601562 21.207031 C 0.679688 20.441406 0.792969 19.679688 0.941406 18.921875 C 1.089844 18.167969 1.277344 17.421875 1.503906 16.6875 C 1.726562 15.949219 1.984375 15.226562 2.28125 14.511719 C 2.574219 13.800781 2.902344 13.105469 3.265625 12.425781 C 3.628906 11.75 4.023438 11.089844 4.453125 10.449219 C 4.878906 9.808594 5.335938 9.191406 5.828125 8.59375 C 6.316406 8 6.832031 7.429688 7.375 6.886719 C 7.921875 6.339844 8.488281 5.824219 9.085938 5.335938 C 9.679688 4.847656 10.296875 4.390625 10.9375 3.960938 C 11.578125 3.535156 12.238281 3.140625 12.917969 2.777344 C 13.597656 2.414062 14.292969 2.085938 15.003906 1.789062 C 15.714844 1.496094 16.4375 1.234375 17.175781 1.011719 C 17.914062 0.789062 18.65625 0.601562 19.414062 0.453125 C 20.167969 0.300781 20.929688 0.1875 21.695312 0.113281 C 22.460938 0.0390625 23.230469 0 24 0 C 24.769531 0 25.539062 0.0390625 26.304688 0.113281 C 27.070312 0.1875 27.832031 0.300781 28.585938 0.453125 C 29.34375 0.601562 30.085938 0.789062 30.824219 1.011719 C 31.5625 1.234375 32.285156 1.496094 32.996094 1.789062 C 33.707031 2.085938 34.402344 2.414062 35.082031 2.777344 C 35.761719 3.140625 36.421875 3.535156 37.0625 3.960938 C 37.703125 4.390625 38.320312 4.847656 38.914062 5.335938 C 39.511719 5.824219 40.078125 6.339844 40.625 6.886719 C 41.167969 7.429688 41.683594 8 42.171875 8.59375 C 42.660156 9.191406 43.121094 9.808594 43.546875 10.449219 C 43.976562 11.089844 44.371094 11.75 44.734375 12.425781 C 45.097656 13.105469 45.425781 13.800781 45.71875 14.511719 C 46.015625 15.226562 46.273438 15.949219 46.496094 16.6875 C 46.722656 17.421875 46.910156 18.167969 47.058594 18.921875 C 47.207031 19.679688 47.320312 20.441406 47.398438 21.207031 C 47.472656 21.972656 47.511719 22.738281 47.511719 23.511719 Z M 47.511719 23.511719 " fill-opacity="1" fill-rule="nonzero"/></g><g fill="#ffffff" fill-opacity="1"><g transform="translate(10.981793, 35.668496)"><g><path d="M 5.058594 0.230469 C 7.167969 0.230469 8.664062 -1.113281 8.664062 -3.410156 L 8.664062 -8.28125 L 13.300781 -8.28125 C 18.785156 -8.28125 22.503906 -11.882812 22.503906 -18.019531 C 22.503906 -24.304688 17.367188 -27.296875 13.074219 -27.296875 L 4.867188 -27.296875 C 3.066406 -27.296875 1.417969 -25.761719 1.417969 -23.769531 L 1.417969 -3.410156 C 1.417969 -1.113281 2.914062 0.230469 5.058594 0.230469 Z M 2.644531 -22.121094 C 2.414062 -22.121094 2.300781 -22.542969 2.300781 -23.421875 C 2.300781 -25.226562 3.640625 -26.453125 5.175781 -26.453125 L 13.648438 -26.453125 C 14.261719 -26.453125 14.722656 -26.296875 14.722656 -26.070312 C 14.722656 -25.839844 13.722656 -25.648438 11.882812 -25.648438 L 5.519531 -25.648438 C 3.910156 -25.648438 3.105469 -24.84375 2.914062 -22.582031 C 2.875 -22.3125 2.835938 -22.121094 2.644531 -22.121094 Z M 8.664062 -14.722656 L 8.664062 -20.894531 L 11.652344 -20.894531 C 13.53125 -20.894531 14.949219 -19.898438 14.949219 -17.75 C 14.949219 -15.757812 13.496094 -14.722656 11.539062 -14.722656 Z M 9.777344 -13.035156 C 9.46875 -13.035156 9.199219 -13.226562 9.199219 -13.457031 C 9.199219 -13.6875 9.46875 -13.839844 9.777344 -13.839844 L 11.882812 -13.839844 C 14.222656 -13.839844 14.644531 -14.988281 14.988281 -15.027344 C 15.21875 -15.066406 15.335938 -14.949219 15.335938 -14.796875 C 15.335938 -14.261719 14.070312 -13.035156 12.230469 -13.035156 Z M 9.777344 -13.035156 "/></g></g></g><g fill="#00bf63" fill-opacity="1"><g transform="translate(29.61317, 35.668496)"><g><path d="M 5.75 0.726562 C 7.859375 0.726562 9.546875 -1.035156 9.546875 -3.105469 C 9.546875 -5.058594 7.820312 -6.863281 5.75 -6.863281 C 3.679688 -6.863281 1.917969 -5.058594 1.917969 -3.105469 C 1.917969 -0.996094 3.679688 0.726562 5.75 0.726562 Z M 3.257812 -2.183594 C 3.027344 -2.183594 2.914062 -2.605469 2.914062 -3.105469 C 2.914062 -4.640625 4.0625 -5.941406 5.828125 -5.941406 C 6.019531 -5.941406 6.132812 -5.828125 6.132812 -5.710938 C 6.132812 -5.636719 6.058594 -5.519531 5.867188 -5.445312 C 4.484375 -4.945312 3.71875 -4.371094 3.566406 -2.644531 C 3.527344 -2.375 3.449219 -2.183594 3.257812 -2.183594 Z M 3.257812 -2.183594 "/></g></g></g></svg>