<svg xmlns="http://www.w3.org/2000/svg" xmlns:xlink="http://www.w3.org/1999/xlink" width="289" zoomAndPan="magnify" viewBox="0 0 216.75 242.249991" height="323" preserveAspectRatio="xMidYMid meet" version="1.0"><defs><g/><clipPath id="473f286f4a"><path d="M 0.28125 28.363281 L 131.011719 28.363281 L 131.011719 159.09375 L 0.28125 159.09375 Z M 0.28125 28.363281 " clip-rule="nonzero"/></clipPath><clipPath id="72c310fd39"><path d="M 20 0.699219 L 125 0.699219 L 125 150 L 20 150 Z M 20 0.699219 " clip-rule="nonzero"/></clipPath><clipPath id="70a33b6b20"><rect x="0" width="105" y="0" height="150"/></clipPath><clipPath id="76e8ae908c"><rect x="0" width="132" y="0" height="160"/></clipPath></defs><g transform="matrix(1, 0, 0, 1, 36, 45)"><g clip-path="url(#76e8ae908c)"><g clip-path="url(#473f286f4a)"><path fill="#000000" d="M 131.011719 93.726562 C 131.011719 94.796875 130.984375 95.867188 130.929688 96.933594 C 130.878906 98.003906 130.800781 99.070312 130.695312 100.132812 C 130.589844 101.199219 130.460938 102.261719 130.300781 103.320312 C 130.144531 104.375 129.964844 105.429688 129.753906 106.480469 C 129.546875 107.527344 129.3125 108.574219 129.050781 109.609375 C 128.792969 110.648438 128.507812 111.679688 128.195312 112.703125 C 127.886719 113.726562 127.550781 114.742188 127.1875 115.75 C 126.828125 116.753906 126.445312 117.753906 126.035156 118.742188 C 125.625 119.730469 125.191406 120.707031 124.734375 121.675781 C 124.277344 122.640625 123.796875 123.597656 123.292969 124.539062 C 122.789062 125.484375 122.261719 126.414062 121.710938 127.332031 C 121.160156 128.25 120.589844 129.152344 119.996094 130.042969 C 119.398438 130.933594 118.785156 131.804688 118.148438 132.664062 C 117.507812 133.523438 116.851562 134.367188 116.171875 135.195312 C 115.496094 136.023438 114.796875 136.832031 114.078125 137.625 C 113.359375 138.417969 112.621094 139.191406 111.863281 139.949219 C 111.109375 140.703125 110.335938 141.441406 109.542969 142.160156 C 108.75 142.878906 107.9375 143.578125 107.113281 144.253906 C 106.285156 144.933594 105.441406 145.59375 104.582031 146.230469 C 103.722656 146.867188 102.847656 147.484375 101.960938 148.078125 C 101.070312 148.671875 100.167969 149.242188 99.25 149.792969 C 98.332031 150.34375 97.402344 150.871094 96.457031 151.375 C 95.515625 151.878906 94.558594 152.359375 93.59375 152.816406 C 92.625 153.273438 91.648438 153.707031 90.660156 154.117188 C 89.671875 154.527344 88.671875 154.910156 87.664062 155.273438 C 86.660156 155.632812 85.644531 155.96875 84.621094 156.277344 C 83.597656 156.589844 82.566406 156.875 81.527344 157.132812 C 80.488281 157.394531 79.445312 157.628906 78.398438 157.835938 C 77.347656 158.046875 76.292969 158.226562 75.234375 158.386719 C 74.179688 158.542969 73.117188 158.671875 72.050781 158.777344 C 70.988281 158.882812 69.921875 158.960938 68.851562 159.015625 C 67.785156 159.066406 66.714844 159.09375 65.644531 159.09375 C 64.574219 159.09375 63.507812 159.066406 62.4375 159.015625 C 61.367188 158.960938 60.300781 158.882812 59.238281 158.777344 C 58.171875 158.671875 57.113281 158.542969 56.054688 158.386719 C 54.996094 158.226562 53.941406 158.046875 52.894531 157.835938 C 51.84375 157.628906 50.800781 157.394531 49.761719 157.132812 C 48.726562 156.875 47.695312 156.589844 46.671875 156.277344 C 45.648438 155.96875 44.632812 155.632812 43.625 155.273438 C 42.617188 154.910156 41.617188 154.527344 40.628906 154.117188 C 39.640625 153.707031 38.664062 153.273438 37.699219 152.816406 C 36.730469 152.359375 35.773438 151.878906 34.832031 151.375 C 33.886719 150.871094 32.957031 150.34375 32.039062 149.792969 C 31.121094 149.242188 30.21875 148.671875 29.328125 148.078125 C 28.441406 147.484375 27.566406 146.867188 26.707031 146.230469 C 25.847656 145.59375 25.003906 144.933594 24.175781 144.253906 C 23.351562 143.578125 22.539062 142.878906 21.75 142.160156 C 20.957031 141.441406 20.179688 140.703125 19.425781 139.949219 C 18.667969 139.191406 17.929688 138.417969 17.210938 137.625 C 16.492188 136.832031 15.796875 136.023438 15.117188 135.195312 C 14.4375 134.367188 13.78125 133.523438 13.144531 132.664062 C 12.503906 131.804688 11.890625 130.933594 11.296875 130.042969 C 10.703125 129.152344 10.128906 128.25 9.578125 127.332031 C 9.027344 126.414062 8.503906 125.484375 7.996094 124.539062 C 7.492188 123.597656 7.011719 122.640625 6.554688 121.675781 C 6.097656 120.707031 5.664062 119.730469 5.253906 118.742188 C 4.847656 117.753906 4.460938 116.753906 4.101562 115.75 C 3.738281 114.742188 3.40625 113.726562 3.09375 112.703125 C 2.785156 111.679688 2.5 110.648438 2.238281 109.609375 C 1.976562 108.574219 1.746094 107.527344 1.535156 106.480469 C 1.328125 105.429688 1.144531 104.375 0.988281 103.320312 C 0.828125 102.261719 0.699219 101.199219 0.59375 100.132812 C 0.488281 99.070312 0.410156 98.003906 0.359375 96.933594 C 0.304688 95.867188 0.28125 94.796875 0.28125 93.726562 C 0.28125 92.65625 0.304688 91.589844 0.359375 90.519531 C 0.410156 89.453125 0.488281 88.386719 0.59375 87.320312 C 0.699219 86.257812 0.828125 85.195312 0.988281 84.136719 C 1.144531 83.078125 1.328125 82.023438 1.535156 80.976562 C 1.746094 79.925781 1.976562 78.882812 2.238281 77.84375 C 2.5 76.808594 2.785156 75.777344 3.09375 74.753906 C 3.40625 73.730469 3.738281 72.714844 4.101562 71.707031 C 4.460938 70.699219 4.847656 69.703125 5.253906 68.714844 C 5.664062 67.726562 6.097656 66.746094 6.554688 65.78125 C 7.011719 64.8125 7.492188 63.859375 7.996094 62.914062 C 8.503906 61.972656 9.027344 61.039062 9.578125 60.125 C 10.128906 59.207031 10.703125 58.300781 11.296875 57.414062 C 11.890625 56.523438 12.503906 55.648438 13.144531 54.789062 C 13.78125 53.929688 14.4375 53.085938 15.117188 52.261719 C 15.796875 51.433594 16.492188 50.625 17.210938 49.832031 C 17.929688 49.039062 18.667969 48.265625 19.425781 47.507812 C 20.179688 46.75 20.957031 46.011719 21.75 45.296875 C 22.539062 44.578125 23.351562 43.878906 24.175781 43.199219 C 25.003906 42.519531 25.847656 41.863281 26.707031 41.226562 C 27.566406 40.589844 28.441406 39.972656 29.328125 39.378906 C 30.21875 38.785156 31.121094 38.210938 32.039062 37.660156 C 32.957031 37.113281 33.886719 36.585938 34.832031 36.082031 C 35.773438 35.578125 36.730469 35.09375 37.699219 34.636719 C 38.664062 34.179688 39.640625 33.746094 40.628906 33.335938 C 41.617188 32.929688 42.617188 32.542969 43.625 32.183594 C 44.632812 31.824219 45.648438 31.488281 46.671875 31.175781 C 47.695312 30.867188 48.726562 30.582031 49.761719 30.320312 C 50.800781 30.0625 51.84375 29.828125 52.894531 29.617188 C 53.941406 29.410156 54.996094 29.226562 56.054688 29.070312 C 57.113281 28.914062 58.171875 28.78125 59.238281 28.675781 C 60.300781 28.570312 61.367188 28.492188 62.4375 28.441406 C 63.507812 28.386719 64.574219 28.363281 65.644531 28.363281 C 66.714844 28.363281 67.785156 28.386719 68.851562 28.441406 C 69.921875 28.492188 70.988281 28.570312 72.050781 28.675781 C 73.117188 28.78125 74.179688 28.914062 75.234375 29.070312 C 76.292969 29.226562 77.347656 29.410156 78.398438 29.617188 C 79.445312 29.828125 80.488281 30.0625 81.527344 30.320312 C 82.566406 30.582031 83.597656 30.867188 84.621094 31.175781 C 85.644531 31.488281 86.660156 31.824219 87.664062 32.183594 C 88.671875 32.542969 89.671875 32.929688 90.660156 33.335938 C 91.648438 33.746094 92.625 34.179688 93.59375 34.636719 C 94.558594 35.09375 95.515625 35.578125 96.457031 36.082031 C 97.402344 36.585938 98.332031 37.113281 99.25 37.660156 C 100.167969 38.210938 101.070312 38.785156 101.960938 39.378906 C 102.847656 39.972656 103.722656 40.589844 104.582031 41.226562 C 105.441406 41.863281 106.285156 42.519531 107.113281 43.199219 C 107.9375 43.878906 108.75 44.578125 109.542969 45.296875 C 110.335938 46.011719 111.109375 46.75 111.863281 47.507812 C 112.621094 48.265625 113.359375 49.039062 114.078125 49.832031 C 114.796875 50.625 115.496094 51.433594 116.171875 52.261719 C 116.851562 53.085938 117.507812 53.929688 118.148438 54.789062 C 118.785156 55.648438 119.398438 56.523438 119.996094 57.414062 C 120.589844 58.300781 121.160156 59.207031 121.710938 60.125 C 122.261719 61.039062 122.789062 61.972656 123.292969 62.914062 C 123.796875 63.859375 124.277344 64.8125 124.734375 65.78125 C 125.191406 66.746094 125.625 67.726562 126.035156 68.714844 C 126.445312 69.703125 126.828125 70.699219 127.1875 71.707031 C 127.550781 72.714844 127.886719 73.730469 128.195312 74.753906 C 128.507812 75.777344 128.792969 76.808594 129.050781 77.84375 C 129.3125 78.882812 129.546875 79.925781 129.753906 80.976562 C 129.964844 82.023438 130.144531 83.078125 130.304688 84.136719 C 130.460938 85.195312 130.589844 86.257812 130.695312 87.320312 C 130.800781 88.386719 130.878906 89.453125 130.929688 90.519531 C 130.984375 91.589844 131.011719 92.65625 131.011719 93.726562 Z M 131.011719 93.726562 " fill-opacity="1" fill-rule="nonzero"/></g><g clip-path="url(#72c310fd39)"><g transform="matrix(1, 0, 0, 1, 20, -0.000000000000007105)"><g clip-path="url(#70a33b6b20)"><g fill="#ffffff" fill-opacity="1"><g transform="translate(0.767427, 111.127967)"><g><path d="M 24.8125 -51.015625 C 26.59375 -53.785156 29.039062 -56.019531 32.15625 -57.71875 C 35.28125 -59.425781 38.9375 -60.28125 43.125 -60.28125 C 48.03125 -60.28125 52.46875 -59.035156 56.4375 -56.546875 C 60.414062 -54.066406 63.554688 -50.519531 65.859375 -45.90625 C 68.171875 -41.289062 69.328125 -35.925781 69.328125 -29.8125 C 69.328125 -23.707031 68.171875 -18.328125 65.859375 -13.671875 C 63.554688 -9.023438 60.414062 -5.441406 56.4375 -2.921875 C 52.46875 -0.398438 48.03125 0.859375 43.125 0.859375 C 39.007812 0.859375 35.375 0.00390625 32.21875 -1.703125 C 29.0625 -3.410156 26.59375 -5.613281 24.8125 -8.3125 L 24.8125 28.328125 L 6.609375 28.328125 L 6.609375 -59.421875 L 24.8125 -59.421875 Z M 50.796875 -29.8125 C 50.796875 -34.363281 49.535156 -37.929688 47.015625 -40.515625 C 44.492188 -43.109375 41.390625 -44.40625 37.703125 -44.40625 C 34.078125 -44.40625 31.003906 -43.09375 28.484375 -40.46875 C 25.960938 -37.84375 24.703125 -34.257812 24.703125 -29.71875 C 24.703125 -25.164062 25.960938 -21.578125 28.484375 -18.953125 C 31.003906 -16.328125 34.078125 -15.015625 37.703125 -15.015625 C 41.316406 -15.015625 44.398438 -16.34375 46.953125 -19 C 49.515625 -21.664062 50.796875 -25.269531 50.796875 -29.8125 Z M 50.796875 -29.8125 "/></g></g></g><g fill="#d9d9d9" fill-opacity="1"><g transform="translate(73.100326, 111.127967)"><g><path d="M 15.125 0.859375 C 11.925781 0.859375 9.316406 -0.0820312 7.296875 -1.96875 C 5.273438 -3.851562 4.265625 -6.179688 4.265625 -8.953125 C 4.265625 -11.785156 5.273438 -14.160156 7.296875 -16.078125 C 9.316406 -17.992188 11.925781 -18.953125 15.125 -18.953125 C 18.25 -18.953125 20.820312 -17.992188 22.84375 -16.078125 C 24.863281 -14.160156 25.875 -11.785156 25.875 -8.953125 C 25.875 -6.179688 24.863281 -3.851562 22.84375 -1.96875 C 20.820312 -0.0820312 18.25 0.859375 15.125 0.859375 Z M 15.125 0.859375 "/></g></g></g></g></g></g></g></g></svg>